<svg version="1.1" id="Layer_1" xmlns="http://www.w3.org/2000/svg" xmlns:xlink="http://www.w3.org/1999/xlink" x="0px" y="0px"
	 width="100%" viewBox="0 0 512 512" enable-background="new 0 0 512 512" xml:space="preserve">
<path fill="#004353" opacity="1.000000" stroke="none" 
	d="
M226.000000,513.000000 
	C150.684921,513.000000 75.869843,513.000000 1.027385,513.000000 
	C1.027385,342.393219 1.027385,171.786453 1.027385,1.089839 
	C171.565109,1.089839 342.130280,1.089839 512.847717,1.089839 
	C512.847717,171.666565 512.847717,342.333252 512.847717,513.000000 
	C417.453094,513.000000 321.976532,513.000000 226.000000,513.000000 
M204.703888,199.580261 
	C204.419983,199.401855 204.136093,199.223450 203.120926,198.913101 
	C194.883453,194.659653 185.812897,200.116959 179.742722,207.261993 
	C167.525314,221.642731 161.932465,238.588898 160.649048,257.279877 
	C160.518951,257.552490 160.578445,257.728455 160.807953,258.656372 
	C160.783051,259.504791 160.758148,260.353210 160.382019,261.736664 
	C158.208069,265.420929 156.034103,269.105194 153.860153,272.789459 
	C154.089401,272.986389 154.318665,273.183350 154.547913,273.380280 
	C156.651230,272.267548 158.754547,271.154816 161.050400,270.822540 
	C164.337479,281.993256 159.458527,290.387543 147.648148,292.144165 
	C146.975235,292.233185 146.302322,292.322205 145.595184,292.526764 
	C145.595184,292.526764 145.474884,292.519928 145.658783,291.769287 
	C140.271469,284.069458 140.915726,275.317993 142.676514,267.048706 
	C146.229111,250.364487 153.295380,235.025146 163.272385,221.114380 
	C166.068069,217.216400 169.335068,213.619003 171.786209,209.524734 
	C173.377258,206.867081 175.303711,203.175964 169.766754,201.177582 
	C167.744659,200.121231 165.509705,197.882278 163.735275,198.201691 
	C152.760834,200.177155 141.474930,201.582489 131.079147,205.348633 
	C114.229736,211.452713 99.844719,221.641434 91.827087,238.423813 
	C86.441681,249.696487 85.243614,261.244995 94.313889,272.309113 
	C94.600227,272.518524 94.886559,272.727966 95.083534,272.939331 
	C95.083534,272.939331 95.096024,272.850830 95.063370,273.607452 
	C95.865364,274.961548 96.371620,276.681702 97.518799,277.608551 
	C103.588554,282.512543 113.074257,281.952515 118.904396,276.621826 
	C120.174522,275.460541 121.638023,274.510742 123.424721,273.149445 
	C123.973251,276.269440 124.387886,278.627869 124.982132,281.804688 
	C125.500916,289.595886 128.841064,296.102478 134.386902,302.266998 
	C134.929291,302.512390 135.471664,302.757782 135.999237,303.005951 
	C135.999237,303.005951 135.992722,302.992859 136.292084,303.413300 
	C136.586136,303.588409 136.880173,303.763519 137.073502,303.941345 
	C137.073502,303.941345 137.083954,303.841125 137.132782,304.565094 
	C140.830276,310.395691 152.193192,312.158936 158.326157,308.323090 
	C162.421951,305.761475 167.015030,303.994965 171.908401,302.242676 
	C173.626572,304.415253 175.344757,306.587830 177.375580,309.263824 
	C177.701218,309.481140 178.026855,309.698456 178.746368,309.928833 
	C178.746368,309.928833 178.975922,310.249115 179.059967,310.973602 
	C180.149826,311.552185 181.239685,312.130768 182.208328,312.756683 
	C182.208328,312.756683 182.275589,312.645264 182.154678,313.417816 
	C183.096970,314.771545 183.891174,316.266968 185.017792,317.444305 
	C186.541534,319.036652 188.320496,320.384827 189.927856,322.597504 
	C189.974701,323.540131 190.021545,324.482758 190.109695,326.256165 
	C194.066254,323.979767 197.519394,321.993011 201.558594,319.931000 
	C202.053711,319.642059 202.548828,319.353119 203.699432,319.019470 
	C204.467636,318.685364 205.235855,318.351257 206.786118,318.002289 
	C215.015793,316.101807 221.489578,311.946106 224.977448,303.923676 
	C224.977448,303.923676 224.918320,303.960602 225.332291,303.776855 
	C225.598404,303.617828 225.800003,303.399292 226.360901,302.799347 
	C226.581116,302.523926 226.801331,302.248474 227.493210,301.799530 
	C227.686981,301.531281 227.880753,301.263031 228.001862,301.013824 
	C228.001862,301.013824 228.022110,301.086182 228.731720,300.980804 
	C233.627701,297.913208 238.523682,294.845612 243.891479,292.248505 
	C246.295944,295.458405 248.700424,298.668335 250.545670,302.302490 
	C237.230637,309.464844 227.970093,321.246704 216.685394,330.722321 
	C217.058975,331.241241 217.432541,331.760162 217.806107,332.279083 
	C230.522018,324.523376 243.237946,316.767700 256.786560,309.035583 
	C263.505859,310.539154 271.172333,312.352783 276.543823,308.117188 
	C283.360809,302.741699 290.284088,301.611237 298.269348,301.842773 
	C300.586304,301.909912 302.913055,300.294952 305.299835,299.718170 
	C307.286316,299.238098 309.367401,299.149353 311.905304,299.255066 
	C313.261108,300.539276 314.616943,301.823456 316.287384,303.486694 
	C316.545685,303.697418 316.834290,303.851318 317.061615,303.951508 
	C317.061615,303.951508 317.069458,303.860229 317.125031,304.591675 
	C319.888458,309.109650 327.620575,311.212738 333.501038,309.271332 
	C335.616364,308.572968 337.920502,308.446320 340.109863,308.914978 
	C339.412903,316.084473 338.371582,323.242279 338.127350,330.427185 
	C337.930237,336.225983 339.227814,341.852173 344.017151,346.704742 
	C345.745972,351.200195 351.348755,354.564423 356.247009,353.910339 
	C374.007904,351.538788 387.490631,337.341217 391.568756,322.006531 
	C396.062103,305.110535 393.349060,288.299713 385.064850,272.992645 
	C380.560364,264.669495 378.539459,257.142517 382.634521,248.162582 
	C384.475128,244.126358 386.502808,241.622726 391.012848,242.026123 
	C397.937836,242.645523 404.845398,243.458191 411.767639,244.111679 
	C412.996948,244.227768 415.184753,244.306152 415.359467,243.828079 
	C416.451172,240.840454 417.863159,237.639343 417.663269,234.608215 
	C417.482697,231.869522 415.811951,228.788269 411.247131,228.758453 
	C407.981995,224.189285 402.947754,223.580444 397.515381,222.372879 
	C393.191040,220.266251 396.253113,217.294098 397.100708,215.189270 
	C401.790405,203.543198 401.064453,203.648499 412.072510,204.072113 
	C415.686005,204.211166 419.261597,205.578384 422.865784,205.632233 
	C425.446838,205.670822 428.828033,205.261185 430.486877,203.647736 
	C434.921326,199.334763 430.084778,186.403885 423.263245,184.756683 
	C419.625000,182.824844 416.177521,179.900055 412.310852,179.157227 
	C402.739929,177.318573 393.456238,180.261063 384.165955,182.374344 
	C380.942352,183.107605 379.744537,184.875946 378.929504,187.906586 
	C377.495911,193.237534 375.478973,198.411636 372.988556,203.784653 
	C369.318420,205.203308 365.648285,206.621964 361.245422,207.790894 
	C360.826691,206.161026 360.091614,204.539139 360.050354,202.899765 
	C359.940277,198.526093 357.963989,195.611404 353.385132,193.647598 
	C350.182922,191.173157 346.980682,188.698730 344.205536,185.636124 
	C351.678497,181.444565 359.177612,177.298645 366.610779,173.037598 
	C369.343079,171.471329 371.919373,169.632935 374.566833,167.918671 
	C374.301270,167.382492 374.035706,166.846329 373.770142,166.310165 
	C370.429260,167.506622 367.059265,168.628601 363.756073,169.921265 
	C360.691071,171.120712 357.749512,172.644516 354.662537,173.777252 
	C345.418976,177.169006 336.117065,180.401794 326.872498,183.790955 
	C325.188416,184.408386 323.667358,185.470474 321.526917,186.440689 
	C321.052490,186.730408 320.578094,187.020111 319.590363,187.488251 
	C319.298798,187.703003 319.007263,187.917755 318.156677,187.754761 
	C315.306274,182.042252 310.281189,179.966202 304.334106,179.989410 
	C298.371521,180.012680 292.410706,180.501785 286.384094,180.789841 
	C288.142365,179.437210 289.598511,178.317017 291.054657,177.196838 
	C290.901764,177.089310 290.748840,176.981781 290.595947,176.874252 
	C276.809845,182.947113 263.023743,189.019974 248.494965,194.949188 
	C247.654205,193.910919 246.951019,192.706070 245.941406,191.872238 
	C244.305649,190.521271 242.468781,189.413818 240.817764,188.183090 
	C240.817764,188.183090 240.801895,188.284836 240.716064,187.803253 
	C240.623260,187.478439 240.444168,187.211502 240.005371,186.550674 
	C240.005371,186.550674 239.984253,186.067215 239.713547,185.645599 
	C239.457336,185.434616 239.201126,185.223618 238.228653,184.854553 
	C235.040375,185.531982 231.257355,185.343582 228.774979,187.048691 
	C221.238693,192.225296 221.545502,198.982056 228.541550,207.072281 
	C228.346603,207.363937 228.151657,207.655594 227.278763,208.103363 
	C223.891068,210.091812 220.503372,212.080246 216.589310,213.575836 
	C215.889374,211.736145 215.544235,209.631790 214.412292,208.114365 
	C212.342773,205.340042 211.781387,200.561844 206.682846,201.359283 
	C206.682846,201.359283 206.666336,201.481339 206.531357,200.883041 
	C206.025162,200.587387 205.518982,200.291733 205.000381,200.002106 
	C205.000381,200.002106 205.000946,199.989731 204.703888,199.580261 
z"/>
<path fill="#FCFDFD" opacity="1.000000" stroke="none" 
	d="
M344.004028,345.959351 
	C339.227814,341.852173 337.930237,336.225983 338.127350,330.427185 
	C338.371582,323.242279 339.412903,316.084473 340.405273,308.220276 
	C341.124725,305.603821 341.583069,303.688812 341.963104,301.758392 
	C342.332947,299.879883 342.622589,297.985565 343.140808,294.975006 
	C335.501617,303.736633 327.202301,306.748718 317.069458,303.860229 
	C317.069458,303.860229 317.061615,303.951508 317.006042,303.691956 
	C316.624573,303.324188 316.298645,303.215912 315.972748,303.107666 
	C314.616943,301.823456 313.261108,300.539276 311.539795,298.706787 
	C310.218628,295.799957 309.263000,293.441376 308.255554,290.954956 
	C300.933502,295.609009 293.332397,298.708313 284.416382,296.142578 
	C283.390472,295.847351 281.760284,296.960693 280.653534,297.758453 
	C276.116180,301.029083 272.030457,305.137390 265.711487,305.096161 
	C265.245056,304.977051 265.050751,305.103638 264.554565,305.464233 
	C262.783112,305.499969 261.417542,305.461639 259.759979,305.228851 
	C256.680298,303.982330 253.892609,302.930267 251.104904,301.878235 
	C248.700424,298.668335 246.295944,295.458405 243.544830,291.631287 
	C242.393906,286.994598 241.589615,282.975098 240.838989,278.555603 
	C240.871033,277.081787 240.849396,276.007965 240.905548,274.522400 
	C243.280945,266.413788 245.578552,258.716858 248.172256,250.872040 
	C249.003845,249.533646 249.539322,248.343140 250.384918,247.008850 
	C255.104340,242.066940 259.469757,237.227478 263.939453,232.486298 
	C266.593536,229.671005 269.436401,229.215668 272.207275,232.679825 
	C273.392578,233.051956 274.887329,233.616104 275.799286,233.116486 
	C284.467621,228.367569 289.688080,228.782654 297.219177,235.403320 
	C299.294647,240.923096 301.261749,246.125214 303.142395,251.743942 
	C302.276947,257.763519 301.497986,263.366486 300.416046,269.154053 
	C297.887207,274.097168 295.661346,278.855652 293.432861,283.635925 
	C293.430206,283.657715 293.442169,283.700684 293.256592,283.860565 
	C292.971588,284.332520 292.893738,284.649841 292.545959,285.153870 
	C291.582367,286.437134 290.910187,287.539001 290.109894,288.850891 
	C292.823730,288.850891 294.914581,288.850891 297.405273,288.925415 
	C309.624786,286.568817 308.903687,286.691498 308.951385,276.746399 
	C309.965332,271.880890 310.913177,267.419006 311.983826,262.593414 
	C314.051514,255.787994 315.996429,249.346283 318.134003,242.595413 
	C320.567047,235.901764 322.807404,229.517258 325.338226,222.907471 
	C329.441437,212.105621 333.254181,201.529053 337.372681,190.746460 
	C338.117767,188.697159 338.557129,186.853867 339.021301,184.906570 
	C340.965637,185.445145 342.372040,185.834717 343.778473,186.224289 
	C346.980682,188.698730 350.182922,191.173157 353.724945,194.222870 
	C354.369965,196.535858 355.262085,198.423828 354.863342,199.981354 
	C353.909027,203.709320 352.347168,207.281784 350.791504,211.183167 
	C348.658569,215.649155 346.764679,219.849014 344.587036,224.244537 
	C340.146118,233.971954 335.988892,243.503723 331.520447,253.207855 
	C330.180328,256.686340 329.151489,259.992432 327.860535,263.537415 
	C325.391754,272.397766 322.605591,280.924591 321.177612,289.673126 
	C320.188354,295.733978 322.931763,297.117798 329.732208,295.128418 
	C334.049164,291.989868 338.665222,289.410065 341.868195,285.632233 
	C351.266083,274.547455 353.892578,260.422394 358.259094,246.801483 
	C358.104767,245.047974 357.675812,243.491104 357.098938,241.614960 
	C354.651550,237.831726 352.352020,234.367737 349.988556,230.616272 
	C349.344971,229.859756 348.765320,229.390717 348.146759,228.535080 
	C347.566467,224.899902 349.891693,225.009171 352.441101,224.919495 
	C366.015167,225.047363 366.017883,225.048386 370.589233,212.802216 
	C370.934753,211.876617 371.203003,210.922150 371.741211,209.745300 
	C372.552277,207.556808 373.129303,205.604126 373.706329,203.651428 
	C375.478973,198.411636 377.495911,193.237534 378.929504,187.906586 
	C379.744537,184.875946 380.942352,183.107605 384.165955,182.374344 
	C393.456238,180.261063 402.739929,177.318573 412.310852,179.157227 
	C416.177521,179.900055 419.625000,182.824844 423.659546,185.278122 
	C424.688812,189.940353 425.531830,194.064102 425.869720,198.228836 
	C426.049957,200.450394 425.091522,202.469742 422.003998,201.737915 
	C421.606689,201.404007 421.311188,201.305084 420.699707,201.102966 
	C419.943024,200.959488 419.502350,200.919220 418.941895,200.586227 
	C418.214020,200.236374 417.605896,200.179230 416.695343,200.025345 
	C415.969757,199.941040 415.546631,199.953476 414.959320,199.647812 
	C413.865936,199.266876 412.936737,199.204041 411.611145,199.067719 
	C410.144592,199.025696 409.074432,199.057159 407.551239,198.994293 
	C404.291809,198.928833 401.479279,198.860931 398.682526,199.039902 
	C397.723938,199.101257 396.238129,199.541870 395.954803,200.214355 
	C392.819275,207.656448 389.873077,215.178299 386.817963,222.823044 
	C389.380524,222.823044 391.676208,222.823044 394.367798,222.898972 
	C395.834656,222.926712 396.905640,222.878540 397.976593,222.830353 
	C402.947754,223.580444 407.981995,224.189285 411.611359,229.244843 
	C412.362732,230.822067 412.749878,231.912888 413.069702,233.412659 
	C412.599548,235.511246 412.196686,237.200928 411.758362,239.039505 
	C409.768036,238.941452 408.121613,238.973160 406.507202,238.761139 
	C399.828522,237.883987 393.152008,236.983826 386.489807,235.990631 
	C382.369690,235.376404 379.638763,236.329544 378.596619,240.947617 
	C377.886627,244.093689 376.528809,247.196121 374.929565,250.016983 
	C371.876953,255.401489 372.901093,259.969940 376.927673,264.604187 
	C380.330505,273.309631 383.713989,281.657471 387.050171,290.434753 
	C387.327698,296.119415 387.730713,301.371155 387.963257,306.630402 
	C388.785095,325.218719 368.551331,350.948303 347.746246,347.904114 
	C346.316254,347.130402 345.160156,346.544891 344.004028,345.959351 
M288.083832,252.265869 
	C287.616058,250.987473 287.148254,249.709061 286.305511,247.405960 
	C278.964111,253.586487 276.164886,260.713654 275.806885,269.996490 
	C276.142700,275.396088 275.299133,281.250519 281.411682,284.823883 
	C282.684509,282.354736 283.807556,280.176208 285.623749,277.725647 
	C286.795441,271.844513 287.967102,265.963348 289.222290,259.234619 
	C288.859070,257.145813 288.495819,255.057007 288.083832,252.265869 
M262.940308,260.487976 
	C262.825165,260.120392 262.710052,259.752808 262.594910,259.385223 
	C262.385162,259.501740 262.175415,259.618225 261.236023,259.832672 
	C253.746368,267.070526 251.207855,276.014465 252.043915,286.887054 
	C253.366364,289.587769 254.688797,292.288483 256.388275,295.498444 
	C257.493622,295.905914 258.598969,296.313385 260.173645,297.468719 
	C266.264160,299.219849 270.971008,297.100861 275.245331,292.141418 
	C273.307190,290.866455 271.679626,289.795776 269.629547,288.198120 
	C267.874878,284.766144 266.120209,281.334167 264.211700,277.068481 
	C263.730225,274.032532 263.248749,270.996552 262.844147,267.091034 
	C262.805756,265.054199 262.767334,263.017334 262.940308,260.487976 
M357.991730,336.601868 
	C361.446960,334.519196 365.557098,333.061890 368.245361,330.246765 
	C380.609558,317.299133 382.898376,292.889465 373.950256,274.243103 
	C372.628052,271.121368 371.305847,267.999664 369.983643,264.877960 
	C364.612640,278.331818 360.056610,291.641541 356.249939,305.162292 
	C354.206024,312.421997 353.278046,320.018738 352.167877,327.511017 
	C351.332336,333.150055 353.111359,335.971375 357.991730,336.601868 
z"/>
<path fill="#FCFDFC" opacity="1.000000" stroke="none" 
	d="
M94.043846,271.845276 
	C85.243614,261.244995 86.441681,249.696487 91.827087,238.423813 
	C99.844719,221.641434 114.229736,211.452713 131.079147,205.348633 
	C141.474930,201.582489 152.760834,200.177155 163.735275,198.201691 
	C165.509705,197.882278 167.744659,200.121231 169.493134,201.688782 
	C168.003326,203.758636 166.779343,205.311234 165.572144,206.876785 
	C150.388458,226.567657 138.224091,247.551727 136.484940,273.178375 
	C135.884933,282.019867 139.027313,289.305908 145.474884,292.519928 
	C145.474884,292.519928 145.595184,292.526764 145.888947,292.677521 
	C147.010605,292.595306 147.838501,292.362335 148.666397,292.129364 
	C159.458527,290.387543 164.337479,281.993256 161.016632,269.984741 
	C160.899658,266.498505 160.816452,263.850067 160.733246,261.201630 
	C160.758148,260.353210 160.783051,259.504791 160.912109,258.092102 
	C161.016251,257.527863 160.871994,257.216461 160.871994,257.216461 
	C161.932465,238.588898 167.525314,221.642731 179.742722,207.261993 
	C185.812897,200.116959 194.883453,194.659653 203.586609,199.233231 
	C204.368500,199.698822 204.684723,199.844284 205.000946,199.989731 
	C205.000946,199.989731 205.000381,200.002106 205.146179,200.246338 
	C205.750107,200.820831 206.208221,201.151093 206.666336,201.481339 
	C206.666336,201.481339 206.682846,201.359283 206.782532,201.698334 
	C210.698502,206.343414 211.385681,211.620758 211.391479,217.415817 
	C210.544571,223.256027 209.852127,228.742065 208.948181,234.526306 
	C203.879227,249.552414 197.159668,263.222839 186.866302,275.042297 
	C180.487976,282.366241 180.629517,283.135132 185.265686,291.720551 
	C185.719711,292.561310 186.401230,293.279205 186.992096,294.031128 
	C187.007034,294.008087 186.952164,294.005646 186.999817,294.288361 
	C187.345856,294.791534 187.644257,295.011993 187.993622,295.556488 
	C189.494781,296.670105 190.944946,297.459686 192.704117,298.487000 
	C196.393631,297.620392 200.239853,297.204956 203.072418,295.290070 
	C214.147858,287.802826 220.526535,276.523651 226.582535,264.677673 
	C229.416397,257.113251 231.973419,249.746979 234.706955,242.031113 
	C235.541443,232.804199 236.199387,223.926865 236.916199,214.621124 
	C236.975067,212.587799 236.975067,210.982880 236.975067,209.535919 
	C234.100235,208.550659 231.552704,207.677567 229.005157,206.804474 
	C221.545502,198.982056 221.238693,192.225296 228.774979,187.048691 
	C231.257355,185.343582 235.040375,185.531982 238.679276,185.179230 
	C239.414688,185.691681 239.699463,185.879456 239.984253,186.067215 
	C239.984253,186.067215 240.005371,186.550674 240.041733,187.045273 
	C240.319366,187.788193 240.560638,188.036514 240.801910,188.284821 
	C240.801895,188.284836 240.817764,188.183090 240.829254,188.589417 
	C241.560028,192.021576 242.279327,195.047424 243.081146,198.420334 
	C245.631256,197.042038 247.434448,196.067429 249.237640,195.092834 
	C263.023743,189.019974 276.809845,182.947113 290.595947,176.874252 
	C290.748840,176.981781 290.901764,177.089310 291.054657,177.196838 
	C289.598511,178.317017 288.142365,179.437210 286.384094,180.789841 
	C292.410706,180.501785 298.371521,180.012680 304.334106,179.989410 
	C310.281189,179.966202 315.306274,182.042252 318.527374,188.356079 
	C319.088745,192.883362 319.279388,196.809326 319.303345,201.043365 
	C317.868500,201.919312 316.600403,202.487152 315.159912,202.693542 
	C307.526459,198.900055 299.630859,200.029755 291.407288,200.067444 
	C275.620667,202.860413 260.260437,205.712799 245.664230,208.423294 
	C245.664230,216.807739 245.664230,223.897308 245.440033,231.320007 
	C244.183517,238.771957 243.151169,245.890793 242.036011,253.393631 
	C239.093964,262.463226 236.234726,271.148834 233.188721,280.164581 
	C227.938950,292.018768 220.717941,301.912689 210.873596,309.819641 
	C210.891006,309.827484 210.867767,309.831848 210.501328,309.834839 
	C205.412796,311.599792 200.690720,313.361786 195.528076,315.054016 
	C190.816895,314.204620 186.546234,313.424957 182.275589,312.645264 
	C182.275589,312.645264 182.208328,312.756683 182.096008,312.481903 
	C180.981094,311.554443 179.978516,310.901794 178.975922,310.249115 
	C178.975922,310.249115 178.746368,309.928833 178.420044,309.648254 
	C177.750107,309.165283 177.406509,308.962830 177.062927,308.760406 
	C175.344757,306.587830 173.626572,304.415253 171.528534,301.709320 
	C169.828217,298.819427 168.507767,296.462921 167.003677,293.778625 
	C158.510376,301.705750 149.885590,309.242706 137.083954,303.841125 
	C137.083954,303.841125 137.073502,303.941345 137.022644,303.679321 
	C136.645432,303.275818 136.319077,303.134338 135.992722,302.992859 
	C135.992722,302.992859 135.999237,303.005951 135.837799,302.757202 
	C135.138962,302.256256 134.601547,302.004028 134.064148,301.751770 
	C128.841064,296.102478 125.500916,289.595886 124.940559,280.933411 
	C125.203377,275.040283 125.507759,270.018433 125.899460,264.611145 
	C126.499146,262.196991 127.011513,260.168243 127.736069,257.855408 
	C128.096054,256.934753 128.121597,256.235870 128.409622,255.670746 
	C134.976212,242.786407 141.571472,229.916687 148.464600,216.890427 
	C151.362076,213.280548 153.956299,209.824448 157.240067,205.449722 
	C139.771683,211.643326 125.141769,220.002426 114.124619,233.965195 
	C107.850800,241.916458 104.709824,250.616638 106.507301,261.863525 
	C108.451370,260.266602 109.759148,259.192352 111.386490,257.996704 
	C113.593430,256.310974 115.381393,254.601944 117.393578,253.219193 
	C119.865120,251.520767 122.475739,250.326431 123.555420,254.763947 
	C118.040779,269.792908 113.193169,276.442169 98.781792,274.841919 
	C97.390770,274.026184 96.243393,273.438507 95.096024,272.850830 
	C95.096024,272.850830 95.083534,272.939331 95.031136,272.676178 
	C94.667107,272.223785 94.355476,272.034546 94.043846,271.845276 
M179.037201,256.045166 
	C179.037201,258.879120 179.037201,261.713104 179.037201,264.547058 
	C179.360199,264.632568 179.683212,264.718048 180.006210,264.803558 
	C182.074066,260.536285 184.141922,256.269043 186.815796,251.676071 
	C188.882553,245.779800 190.949310,239.883530 192.988358,233.991699 
	C192.988358,233.991699 192.991684,234.019562 193.552353,233.936554 
	C193.615799,233.581375 193.679230,233.226212 193.931686,232.053299 
	C194.391525,227.583466 194.851364,223.113632 195.311218,218.643799 
	C188.489304,225.139343 183.521667,232.194687 181.170578,241.498596 
	C180.514450,246.064774 179.858337,250.630951 179.037201,256.045166 
M236.018555,196.389893 
	C235.718216,194.359650 235.417877,192.329391 235.117538,190.299149 
	C233.090393,191.669464 231.663528,193.252930 231.511536,194.950546 
	C231.407684,196.110321 233.082565,197.429382 233.962189,198.677246 
	C234.646317,198.188004 235.330444,197.698761 236.018555,196.389893 
z"/>
<path fill="#05303D" opacity="1.000000" stroke="none" 
	d="
M145.566833,292.144592 
	C139.027313,289.305908 135.884933,282.019867 136.484940,273.178375 
	C138.224091,247.551727 150.388458,226.567657 165.572144,206.876785 
	C166.779343,205.311234 168.003326,203.758636 169.522781,202.051819 
	C175.303711,203.175964 173.377258,206.867081 171.786209,209.524734 
	C169.335068,213.619003 166.068069,217.216400 163.272385,221.114380 
	C153.295380,235.025146 146.229111,250.364487 142.676514,267.048706 
	C140.915726,275.317993 140.271469,284.069458 145.566833,292.144592 
z"/>
<path fill="#013745" opacity="1.000000" stroke="none" 
	d="
M344.010590,346.332031 
	C345.160156,346.544891 346.316254,347.130402 348.031311,348.150696 
	C353.770050,348.702209 359.564880,350.400055 364.024414,348.665283 
	C384.641174,340.645172 394.416687,318.727722 390.370636,296.926605 
	C389.920380,294.500580 388.218781,292.306763 387.097504,290.005280 
	C383.713989,281.657471 380.330505,273.309631 376.942139,264.208069 
	C377.787506,258.649445 378.159576,253.696640 379.590546,249.071426 
	C382.307770,240.288834 387.370453,237.705505 396.412903,239.276703 
	C401.135742,240.097351 405.934021,240.703186 410.715057,240.847397 
	C412.332031,240.896179 415.160614,239.435257 415.364960,238.293686 
	C415.647705,236.713898 413.973328,234.783798 413.137024,233.003723 
	C412.749878,231.912888 412.362732,230.822067 411.921051,229.383636 
	C415.811951,228.788269 417.482697,231.869522 417.663269,234.608215 
	C417.863159,237.639343 416.451172,240.840454 415.359467,243.828079 
	C415.184753,244.306152 412.996948,244.227768 411.767639,244.111679 
	C404.845398,243.458191 397.937836,242.645523 391.012848,242.026123 
	C386.502808,241.622726 384.475128,244.126358 382.634521,248.162582 
	C378.539459,257.142517 380.560364,264.669495 385.064850,272.992645 
	C393.349060,288.299713 396.062103,305.110535 391.568756,322.006531 
	C387.490631,337.341217 374.007904,351.538788 356.247009,353.910339 
	C351.348755,354.564423 345.745972,351.200195 344.010590,346.332031 
z"/>
<path fill="#91A25F" opacity="1.000000" stroke="none" 
	d="
M343.992004,185.930206 
	C342.372040,185.834717 340.965637,185.445145 339.021301,184.906570 
	C338.557129,186.853867 338.117767,188.697159 337.013733,190.771790 
	C332.903168,193.018570 329.457306,195.033981 326.006073,196.652771 
	C324.690826,192.946548 323.380920,189.636917 322.071045,186.327301 
	C323.667358,185.470474 325.188416,184.408386 326.872498,183.790955 
	C336.117065,180.401794 345.418976,177.169006 354.662537,173.777252 
	C357.749512,172.644516 360.691071,171.120712 363.756073,169.921265 
	C367.059265,168.628601 370.429260,167.506622 373.770142,166.310165 
	C374.035706,166.846329 374.301270,167.382492 374.566833,167.918671 
	C371.919373,169.632935 369.343079,171.471329 366.610779,173.037598 
	C359.177612,177.298645 351.678497,181.444565 343.992004,185.930206 
z"/>
<path fill="#05303D" opacity="1.000000" stroke="none" 
	d="
M260.051971,305.423309 
	C261.417542,305.461639 262.783112,305.499969 264.711761,305.577362 
	C265.568604,305.600159 265.770172,305.455322 265.879547,305.181946 
	C272.030457,305.137390 276.116180,301.029083 280.653534,297.758453 
	C281.760284,296.960693 283.390472,295.847351 284.416382,296.142578 
	C293.332397,298.708313 300.933502,295.609009 308.255554,290.954956 
	C309.263000,293.441376 310.218628,295.799957 311.290436,298.522919 
	C309.367401,299.149353 307.286316,299.238098 305.299835,299.718170 
	C302.913055,300.294952 300.586304,301.909912 298.269348,301.842773 
	C290.284088,301.611237 283.360809,302.741699 276.543823,308.117188 
	C271.172333,312.352783 263.505859,310.539154 256.590210,308.752441 
	C257.613220,307.453949 258.832581,306.438629 260.051971,305.423309 
z"/>
<path fill="#8C9E5F" opacity="1.000000" stroke="none" 
	d="
M259.759979,305.228851 
	C258.832581,306.438629 257.613220,307.453949 256.173828,308.740662 
	C243.237946,316.767700 230.522018,324.523376 217.806107,332.279083 
	C217.432541,331.760162 217.058975,331.241241 216.685394,330.722321 
	C227.970093,321.246704 237.230637,309.464844 250.825287,302.090363 
	C253.892609,302.930267 256.680298,303.982330 259.759979,305.228851 
z"/>
<path fill="#013745" opacity="1.000000" stroke="none" 
	d="
M422.105835,201.972900 
	C425.091522,202.469742 426.049957,200.450394 425.869720,198.228836 
	C425.531830,194.064102 424.688812,189.940353 423.969482,185.414062 
	C430.084778,186.403885 434.921326,199.334763 430.486877,203.647736 
	C428.828033,205.261185 425.446838,205.670822 422.865784,205.632233 
	C419.261597,205.578384 415.686005,204.211166 412.072510,204.072113 
	C401.064453,203.648499 401.790405,203.543198 397.100708,215.189270 
	C396.253113,217.294098 393.191040,220.266251 397.745972,222.601624 
	C396.905640,222.878540 395.834656,222.926712 394.123383,222.649017 
	C393.002045,221.344467 391.888458,220.142960 392.142059,219.423096 
	C393.869080,214.520660 395.264130,209.313721 398.056458,205.049988 
	C399.544739,202.777481 403.634644,202.242691 406.491211,200.806107 
	C407.123566,200.488083 407.506531,199.674194 408.004303,199.088654 
	C409.074432,199.057159 410.144592,199.025696 411.864380,199.284714 
	C413.383881,199.705460 414.253693,199.835693 415.123505,199.965912 
	C415.546631,199.953476 415.969757,199.941040 416.748901,200.296326 
	C417.757202,200.735703 418.409454,200.807327 419.061707,200.878952 
	C419.502350,200.919220 419.943024,200.959488 420.852356,201.268799 
	C421.556519,201.729996 421.818115,201.875015 422.105835,201.972900 
z"/>
<path fill="#909F5C" opacity="1.000000" stroke="none" 
	d="
M217.115677,214.068695 
	C220.503372,212.080246 223.891068,210.091812 227.784515,208.320984 
	C230.856033,210.684143 233.421814,212.829697 235.796280,215.249451 
	C229.370621,219.659653 223.136292,223.795654 216.653427,227.613373 
	C216.182587,223.420746 215.960266,219.546371 215.919128,215.474213 
	C216.438751,214.873840 216.777222,214.471268 217.115677,214.068695 
z"/>
<path fill="#05303D" opacity="1.000000" stroke="none" 
	d="
M137.108368,304.203125 
	C149.885590,309.242706 158.510376,301.705750 167.003677,293.778625 
	C168.507767,296.462921 169.828217,298.819427 171.267105,301.524292 
	C167.015030,303.994965 162.421951,305.761475 158.326157,308.323090 
	C152.193192,312.158936 140.830276,310.395691 137.108368,304.203125 
z"/>
<path fill="#636F3F" opacity="1.000000" stroke="none" 
	d="
M210.856186,309.811798 
	C220.717941,301.912689 227.938950,292.018768 233.522736,280.178772 
	C236.304932,278.219879 238.566345,276.576996 240.827759,274.934113 
	C240.849396,276.007965 240.871033,277.081787 240.498947,278.626404 
	C236.077515,286.426849 232.049805,293.756500 228.022095,301.086182 
	C228.022110,301.086182 228.001862,301.013824 227.820343,301.118774 
	C227.358582,301.412109 227.152817,301.661865 227.021545,301.973022 
	C226.801331,302.248474 226.581116,302.523926 225.922134,303.021210 
	C225.166351,303.380859 224.977997,303.620026 224.918320,303.960602 
	C224.918320,303.960602 224.977448,303.923676 224.597168,303.953308 
	C219.763321,305.925873 215.309753,307.868835 210.856186,309.811798 
z"/>
<path fill="#05303D" opacity="1.000000" stroke="none" 
	d="
M317.097229,304.225952 
	C327.202301,306.748718 335.501617,303.736633 343.140808,294.975006 
	C342.622589,297.985565 342.332947,299.879883 341.963104,301.758392 
	C341.583069,303.688812 341.124725,305.603821 340.419556,307.792175 
	C337.920502,308.446320 335.616364,308.572968 333.501038,309.271332 
	C327.620575,311.212738 319.888458,309.109650 317.097229,304.225952 
z"/>
<path fill="#819055" opacity="1.000000" stroke="none" 
	d="
M228.376907,301.033508 
	C232.049805,293.756500 236.077515,286.426849 240.445282,279.026398 
	C241.589615,282.975098 242.393906,286.994598 243.308929,291.396057 
	C238.523682,294.845612 233.627701,297.913208 228.376907,301.033508 
z"/>
<path fill="#013745" opacity="1.000000" stroke="none" 
	d="
M125.812134,264.996582 
	C125.507759,270.018433 125.203377,275.040283 124.850754,280.524200 
	C124.387886,278.627869 123.973251,276.269440 123.424721,273.149445 
	C121.638023,274.510742 120.174522,275.460541 118.904396,276.621826 
	C113.074257,281.952515 103.588554,282.512543 97.518799,277.608551 
	C96.371620,276.681702 95.865364,274.961548 95.079697,273.229126 
	C96.243393,273.438507 97.390770,274.026184 99.041382,275.084869 
	C109.088066,279.971466 113.581192,278.766937 120.298744,270.305298 
	C121.870949,268.324890 123.960556,266.755219 125.812134,264.996582 
z"/>
<path fill="#8C9E5F" opacity="1.000000" stroke="none" 
	d="
M373.347443,203.718048 
	C373.129303,205.604126 372.552277,207.556808 371.345459,209.733459 
	C366.145081,212.324188 361.574402,214.690964 356.758514,216.804535 
	C356.972931,214.310501 357.432526,212.069672 358.144897,209.614914 
	C359.591156,208.947540 360.784637,208.494064 361.978149,208.040619 
	C365.648285,206.621964 369.318420,205.203308 373.347443,203.718048 
z"/>
<path fill="#05303D" opacity="1.000000" stroke="none" 
	d="
M361.611786,207.915741 
	C360.784637,208.494064 359.591156,208.947540 357.794556,209.635712 
	C356.116089,210.211060 355.040680,210.551697 353.598206,210.919159 
	C352.497620,210.936325 351.764099,210.926666 351.030579,210.917023 
	C352.347168,207.281784 353.909027,203.709320 354.863342,199.981354 
	C355.262085,198.423828 354.369965,196.535858 354.010193,194.397186 
	C357.963989,195.611404 359.940277,198.526093 360.050354,202.899765 
	C360.091614,204.539139 360.826691,206.161026 361.611786,207.915741 
z"/>
<path fill="#05303D" opacity="1.000000" stroke="none" 
	d="
M210.873596,309.819641 
	C215.309753,307.868835 219.763321,305.925873 224.568939,303.932861 
	C221.489578,311.946106 215.015793,316.101807 206.384949,317.994202 
	C205.983795,317.986115 205.959488,317.958008 206.017242,317.616669 
	C207.672577,314.794159 209.270172,312.312988 210.867767,309.831848 
	C210.867767,309.831848 210.891006,309.827484 210.873596,309.819641 
z"/>
<path fill="#013745" opacity="1.000000" stroke="none" 
	d="
M216.852493,213.822266 
	C216.777222,214.471268 216.438751,214.873840 215.565659,215.586533 
	C213.869324,216.284988 212.707642,216.673325 211.545959,217.061646 
	C211.385681,211.620758 210.698502,206.343414 206.726257,201.723343 
	C211.781387,200.561844 212.342773,205.340042 214.412292,208.114365 
	C215.544235,209.631790 215.889374,211.736145 216.852493,213.822266 
z"/>
<path fill="#05303D" opacity="1.000000" stroke="none" 
	d="
M182.215134,313.031555 
	C186.546234,313.424957 190.816895,314.204620 195.514313,315.374329 
	C194.949142,316.828949 193.957199,317.893494 192.682251,319.071655 
	C191.596130,320.069427 190.793060,320.953583 189.989990,321.837738 
	C188.320496,320.384827 186.541534,319.036652 185.017792,317.444305 
	C183.891174,316.266968 183.096970,314.771545 182.215134,313.031555 
z"/>
<path fill="#013745" opacity="1.000000" stroke="none" 
	d="
M248.866302,195.021011 
	C247.434448,196.067429 245.631256,197.042038 243.081146,198.420334 
	C242.279327,195.047424 241.560028,192.021576 240.778778,188.599640 
	C242.468781,189.413818 244.305649,190.521271 245.941406,191.872238 
	C246.951019,192.706070 247.654205,193.910919 248.866302,195.021011 
z"/>
<path fill="#819055" opacity="1.000000" stroke="none" 
	d="
M189.958923,322.217621 
	C190.793060,320.953583 191.596130,320.069427 193.143051,319.089905 
	C196.409027,319.029480 198.931152,319.064423 201.335159,319.327209 
	C201.135529,319.705444 201.054016,319.855835 200.972534,320.006287 
	C197.519394,321.993011 194.066254,323.979767 190.109695,326.256165 
	C190.021545,324.482758 189.974701,323.540131 189.958923,322.217621 
z"/>
<path fill="#8C9E5F" opacity="1.000000" stroke="none" 
	d="
M160.557617,261.469147 
	C160.816452,263.850067 160.899658,266.498505 160.920349,269.594543 
	C158.754547,271.154816 156.651230,272.267548 154.547913,273.380280 
	C154.318665,273.183350 154.089401,272.986389 153.860153,272.789459 
	C156.034103,269.105194 158.208069,265.420929 160.557617,261.469147 
z"/>
<path fill="#6B7743" opacity="1.000000" stroke="none" 
	d="
M319.470032,200.735291 
	C319.279388,196.809326 319.088745,192.883362 318.806885,188.544952 
	C319.007263,187.917755 319.298798,187.703003 319.895142,187.734131 
	C321.807617,191.331253 323.415253,194.682480 324.992218,198.226929 
	C324.961517,198.420166 324.915527,198.808746 324.567963,198.903381 
	C322.636932,199.577103 321.053497,200.156204 319.470032,200.735291 
z"/>
<path fill="#819055" opacity="1.000000" stroke="none" 
	d="
M235.987595,214.975250 
	C233.421814,212.829697 230.856033,210.684143 228.123474,208.242920 
	C228.151657,207.655594 228.346603,207.363937 228.773346,206.938385 
	C231.552704,207.677567 234.100235,208.550659 236.975067,209.535919 
	C236.975067,210.982880 236.975067,212.587799 236.698990,214.600342 
	C236.422913,215.007950 235.987595,214.975250 235.987595,214.975250 
z"/>
<path fill="#819055" opacity="1.000000" stroke="none" 
	d="
M325.022919,198.033707 
	C323.415253,194.682480 321.807617,191.331253 320.151794,187.644928 
	C320.578094,187.020111 321.052490,186.730408 321.798981,186.383987 
	C323.380920,189.636917 324.690826,192.946548 325.908630,196.876648 
	C325.624023,197.782532 325.359497,197.961380 325.022919,198.033707 
z"/>
<path fill="#05303D" opacity="1.000000" stroke="none" 
	d="
M179.017944,310.611359 
	C179.978516,310.901794 180.981094,311.554443 182.156616,312.458252 
	C181.239685,312.130768 180.149826,311.552185 179.017944,310.611359 
z"/>
<path fill="#05303D" opacity="1.000000" stroke="none" 
	d="
M205.993927,318.001648 
	C205.235855,318.351257 204.467636,318.685364 203.364120,319.028076 
	C203.028809,319.036713 203.009445,319.015076 203.226379,318.772980 
	C204.282028,318.339935 205.120758,318.148987 205.959488,317.958008 
	C205.959488,317.958008 205.983795,317.986115 205.993927,318.001648 
z"/>
<path fill="#05303D" opacity="1.000000" stroke="none" 
	d="
M148.157272,292.136780 
	C147.838501,292.362335 147.010605,292.595306 145.906067,292.619751 
	C146.302322,292.322205 146.975235,292.233185 148.157272,292.136780 
z"/>
<path fill="#05303D" opacity="1.000000" stroke="none" 
	d="
M201.265564,319.968628 
	C201.054016,319.855835 201.135529,319.705444 201.592987,319.343658 
	C202.315781,319.093231 202.662613,319.054138 203.009445,319.015076 
	C203.009445,319.015076 203.028809,319.036713 203.036377,319.050446 
	C202.548828,319.353119 202.053711,319.642059 201.265564,319.968628 
z"/>
<path fill="#05303D" opacity="1.000000" stroke="none" 
	d="
M134.225525,302.009399 
	C134.601547,302.004028 135.138962,302.256256 135.845215,302.755829 
	C135.471664,302.757782 134.929291,302.512390 134.225525,302.009399 
z"/>
<path fill="#013745" opacity="1.000000" stroke="none" 
	d="
M206.598846,201.182190 
	C206.208221,201.151093 205.750107,200.820831 205.152390,200.243317 
	C205.518982,200.291733 206.025162,200.587387 206.598846,201.182190 
z"/>
<path fill="#05303D" opacity="1.000000" stroke="none" 
	d="
M316.130066,303.297180 
	C316.298645,303.215912 316.624573,303.324188 317.051819,303.690430 
	C316.834290,303.851318 316.545685,303.697418 316.130066,303.297180 
z"/>
<path fill="#013745" opacity="1.000000" stroke="none" 
	d="
M239.848907,185.856415 
	C239.699463,185.879456 239.414688,185.691681 239.037415,185.258270 
	C239.201126,185.223618 239.457336,185.434616 239.848907,185.856415 
z"/>
<path fill="#013745" opacity="1.000000" stroke="none" 
	d="
M240.758987,188.044037 
	C240.560638,188.036514 240.319366,187.788193 240.128448,187.271149 
	C240.444168,187.211502 240.623260,187.478439 240.758987,188.044037 
z"/>
<path fill="#013745" opacity="1.000000" stroke="none" 
	d="
M204.852417,199.785004 
	C204.684723,199.844284 204.368500,199.698822 203.952240,199.299194 
	C204.136093,199.223450 204.419983,199.401855 204.852417,199.785004 
z"/>
<path fill="#05303D" opacity="1.000000" stroke="none" 
	d="
M177.219254,309.012115 
	C177.406509,308.962830 177.750107,309.165283 178.223099,309.641724 
	C178.026855,309.698456 177.701218,309.481140 177.219254,309.012115 
z"/>
<path fill="#05303D" opacity="1.000000" stroke="none" 
	d="
M225.125305,303.868713 
	C224.977997,303.620026 225.166351,303.380859 225.710220,303.182129 
	C225.800003,303.399292 225.598404,303.617828 225.125305,303.868713 
z"/>
<path fill="#05303D" opacity="1.000000" stroke="none" 
	d="
M136.142395,303.203064 
	C136.319077,303.134338 136.645432,303.275818 137.072998,303.677948 
	C136.880173,303.763519 136.586136,303.588409 136.142395,303.203064 
z"/>
<path fill="#8C9E5F" opacity="1.000000" stroke="none" 
	d="
M160.760529,257.248169 
	C160.871994,257.216461 161.016251,257.527863 160.921906,257.667786 
	C160.578445,257.728455 160.518951,257.552490 160.760529,257.248169 
z"/>
<path fill="#819055" opacity="1.000000" stroke="none" 
	d="
M227.257370,301.886292 
	C227.152817,301.661865 227.358582,301.412109 227.856689,301.109253 
	C227.880753,301.263031 227.686981,301.531281 227.257370,301.886292 
z"/>
<path fill="#013745" opacity="1.000000" stroke="none" 
	d="
M94.178864,272.077209 
	C94.355476,272.034546 94.667107,272.223785 95.075813,272.675201 
	C94.886559,272.727966 94.600227,272.518524 94.178864,272.077209 
z"/>
<path fill="#044452" opacity="1.000000" stroke="none" 
	d="
M324.992218,198.226929 
	C325.359497,197.961380 325.624023,197.782532 325.914001,197.273270 
	C329.457306,195.033981 332.903168,193.018570 336.708008,190.977814 
	C333.254181,201.529053 329.441437,212.105621 325.003998,223.004532 
	C321.525848,224.620239 318.674347,225.917923 315.818542,227.206070 
	C310.153259,229.761429 304.485657,232.311523 298.531006,234.881744 
	C297.865601,234.961670 297.488220,235.023666 297.110840,235.085663 
	C289.688080,228.782654 284.467621,228.367569 275.799286,233.116486 
	C274.887329,233.616104 273.392578,233.051956 272.543762,232.590271 
	C276.861237,229.211472 280.391174,224.800735 284.826324,223.516693 
	C295.842590,220.327240 302.923645,211.628387 312.418457,206.037735 
	C313.029938,205.983856 313.378510,205.944305 314.147766,205.981827 
	C322.867645,207.831696 323.392487,207.923660 324.720581,200.288483 
	C324.805756,199.798752 324.851440,199.302155 324.915527,198.808746 
	C324.915527,198.808746 324.961517,198.420166 324.992218,198.226929 
z"/>
<path fill="#909F5C" opacity="1.000000" stroke="none" 
	d="
M312.155548,206.052063 
	C302.923645,211.628387 295.842590,220.327240 284.826324,223.516693 
	C280.391174,224.800735 276.861237,229.211472 272.582825,232.288757 
	C269.436401,229.215668 266.593536,229.671005 263.939453,232.486298 
	C259.469757,237.227478 255.104340,242.066940 250.353119,246.532043 
	C249.993088,240.140930 249.974991,234.082855 250.052261,227.809875 
	C250.147644,227.595001 250.271622,227.141449 250.529877,226.981995 
	C251.585083,226.239395 252.382034,225.656265 253.532379,225.038574 
	C261.275726,219.704910 268.665710,214.405807 276.416138,209.077362 
	C278.853119,208.042648 280.929626,207.037292 283.318726,205.965576 
	C284.405548,205.549011 285.179749,205.198822 286.232178,205.126892 
	C288.120758,205.396713 289.732544,205.340652 291.341248,205.388123 
	C298.279846,205.592896 305.217529,205.828003 312.155548,206.052063 
z"/>
<path fill="#034151" opacity="1.000000" stroke="none" 
	d="
M373.902435,274.991516 
	C382.898376,292.889465 380.609558,317.299133 368.245361,330.246765 
	C365.557098,333.061890 361.446960,334.519196 357.546265,336.121002 
	C358.380249,327.068604 359.167725,318.386414 361.064148,309.953644 
	C363.409180,299.525818 366.544281,289.265045 369.676697,279.035767 
	C370.174835,277.408905 372.449219,276.325928 373.902435,274.991516 
z"/>
<path fill="#044452" opacity="1.000000" stroke="none" 
	d="
M357.984436,246.998108 
	C353.892578,260.422394 351.266083,274.547455 341.868195,285.632233 
	C338.665222,289.410065 334.049164,291.989868 329.306824,295.078888 
	C327.690552,293.695953 325.952118,292.198792 326.151031,291.031860 
	C327.225372,284.728882 328.725372,278.494965 330.190155,272.263428 
	C331.004303,268.799835 332.035828,265.387360 332.981049,261.970703 
	C332.992737,261.989563 332.953278,261.990051 333.154297,261.891052 
	C333.611694,261.625763 333.806183,261.404938 334.161377,260.966766 
	C334.919067,260.324890 335.454071,259.845825 336.329956,259.231873 
	C343.775360,255.064011 350.879883,251.031052 357.984436,246.998108 
z"/>
<path fill="#05303D" opacity="1.000000" stroke="none" 
	d="
M373.926331,274.617310 
	C372.449219,276.325928 370.174835,277.408905 369.676697,279.035767 
	C366.544281,289.265045 363.409180,299.525818 361.064148,309.953644 
	C359.167725,318.386414 358.380249,327.068604 357.149017,336.140137 
	C353.111359,335.971375 351.332336,333.150055 352.167877,327.511017 
	C353.278046,320.018738 354.206024,312.421997 356.249939,305.162292 
	C360.056610,291.641541 364.612640,278.331818 369.983643,264.877960 
	C371.305847,267.999664 372.628052,271.121368 373.926331,274.617310 
z"/>
<path fill="#91A25F" opacity="1.000000" stroke="none" 
	d="
M298.819031,234.863815 
	C304.485657,232.311523 310.153259,229.761429 315.818542,227.206070 
	C318.674347,225.917923 321.525848,224.620239 324.713531,223.229828 
	C322.807404,229.517258 320.567047,235.901764 317.779297,242.612030 
	C314.165070,244.704391 311.098267,246.470978 307.867798,247.911133 
	C304.742401,243.344391 301.780731,239.104111 298.819031,234.863815 
z"/>
<path fill="#052D39" opacity="1.000000" stroke="none" 
	d="
M387.050171,290.434753 
	C388.218781,292.306763 389.920380,294.500580 390.370636,296.926605 
	C394.416687,318.727722 384.641174,340.645172 364.024414,348.665283 
	C359.564880,350.400055 353.770050,348.702209 348.305176,348.338898 
	C368.551331,350.948303 388.785095,325.218719 387.963257,306.630402 
	C387.730713,301.371155 387.327698,296.119415 387.050171,290.434753 
z"/>
<path fill="#05303D" opacity="1.000000" stroke="none" 
	d="
M413.069702,233.412659 
	C413.973328,234.783798 415.647705,236.713898 415.364960,238.293686 
	C415.160614,239.435257 412.332031,240.896179 410.715057,240.847397 
	C405.934021,240.703186 401.135742,240.097351 396.412903,239.276703 
	C387.370453,237.705505 382.307770,240.288834 379.590546,249.071426 
	C378.159576,253.696640 377.787506,258.649445 376.922821,263.850433 
	C372.901093,259.969940 371.876953,255.401489 374.929565,250.016983 
	C376.528809,247.196121 377.886627,244.093689 378.596619,240.947617 
	C379.638763,236.329544 382.369690,235.376404 386.489807,235.990631 
	C393.152008,236.983826 399.828522,237.883987 406.507202,238.761139 
	C408.121613,238.973160 409.768036,238.941452 411.758362,239.039505 
	C412.196686,237.200928 412.599548,235.511246 413.069702,233.412659 
z"/>
<path fill="#05303D" opacity="1.000000" stroke="none" 
	d="
M332.969360,261.951843 
	C332.035828,265.387360 331.004303,268.799835 330.190155,272.263428 
	C328.725372,278.494965 327.225372,284.728882 326.151031,291.031860 
	C325.952118,292.198792 327.690552,293.695953 328.960236,295.090210 
	C322.931763,297.117798 320.188354,295.733978 321.177612,289.673126 
	C322.605591,280.924591 325.391754,272.397766 328.223877,263.495850 
	C330.222687,262.794189 331.596039,262.373016 332.969360,261.951843 
z"/>
<path fill="#044452" opacity="1.000000" stroke="none" 
	d="
M357.003723,217.057709 
	C361.574402,214.690964 366.145081,212.324188 371.111450,209.969269 
	C371.203003,210.922150 370.934753,211.876617 370.589233,212.802216 
	C366.017883,225.048386 366.015167,225.047363 352.239441,224.693695 
	C351.061401,223.581619 350.545288,222.772858 350.139160,221.733704 
	C350.519836,221.070206 350.790466,220.637100 351.296570,220.071014 
	C351.706482,219.638657 351.880890,219.339294 352.051880,219.077209 
	C352.048462,219.114487 352.122467,219.125839 352.466125,219.131989 
	C354.207764,218.444656 355.605743,217.751175 357.003723,217.057709 
z"/>
<path fill="#034151" opacity="1.000000" stroke="none" 
	d="
M308.031464,248.237595 
	C311.098267,246.470978 314.165070,244.704391 317.586609,242.921188 
	C315.996429,249.346283 314.051514,255.787994 311.670837,262.653748 
	C310.166931,263.769775 309.098816,264.461731 307.809967,265.115784 
	C307.589233,265.077850 307.142151,265.050079 306.881287,264.804565 
	C306.386932,259.971130 306.153412,255.383194 306.071136,250.559830 
	C306.825409,249.628799 307.428436,248.933212 308.031464,248.237595 
z"/>
<path fill="#034151" opacity="1.000000" stroke="none" 
	d="
M259.704315,296.720856 
	C258.598969,296.313385 257.493622,295.905914 256.349335,294.907898 
	C256.528534,290.839935 256.746674,287.362518 257.138855,283.596741 
	C259.663788,281.506287 262.014648,279.704254 264.365509,277.902191 
	C266.120209,281.334167 267.874878,284.766144 269.488800,288.534393 
	C266.133484,291.487396 262.918884,294.104126 259.704315,296.720856 
z"/>
<path fill="#034151" opacity="1.000000" stroke="none" 
	d="
M350.052490,230.903763 
	C352.352020,234.367737 354.651550,237.831726 356.917297,241.943298 
	C352.230347,244.628143 347.577209,246.665405 342.762970,248.392212 
	C341.969757,241.004379 345.689178,235.814438 350.052490,230.903763 
z"/>
<path fill="#8C9E5F" opacity="1.000000" stroke="none" 
	d="
M342.924042,248.702698 
	C347.577209,246.665405 352.230347,244.628143 357.065186,242.262558 
	C357.675812,243.491104 358.104767,245.047974 358.259094,246.801483 
	C350.879883,251.031052 343.775360,255.064011 336.330627,258.817444 
	C336.652252,256.018768 337.314087,253.499634 337.987671,250.990234 
	C337.999390,251.000000 337.979675,250.977814 338.189209,250.910919 
	C338.657227,250.691803 338.859955,250.484940 339.340698,250.113480 
	C340.757629,249.569916 341.840820,249.136307 342.924042,248.702698 
z"/>
<path fill="#052D39" opacity="1.000000" stroke="none" 
	d="
M350.029144,221.964111 
	C350.545288,222.772858 351.061401,223.581619 351.779236,224.616180 
	C349.891693,225.009171 347.566467,224.899902 347.781372,228.604202 
	C342.535370,235.293793 339.064819,242.174332 338.023804,250.355148 
	C338.003937,250.562302 337.979675,250.977814 337.979675,250.977814 
	C337.979675,250.977814 337.999390,251.000000 337.626923,251.018768 
	C335.446869,251.703522 333.639282,252.369507 331.831696,253.035492 
	C335.988892,243.503723 340.146118,233.971954 344.942780,224.225159 
	C347.064545,223.328125 348.546844,222.646118 350.029144,221.964111 
z"/>
<path fill="#6B7743" opacity="1.000000" stroke="none" 
	d="
M249.956879,228.024780 
	C249.974991,234.082855 249.993088,240.140930 250.042999,246.675812 
	C249.539322,248.343140 249.003845,249.533646 247.848663,250.971802 
	C245.525604,251.816162 243.822220,252.412888 242.118835,253.009613 
	C243.151169,245.890793 244.183517,238.771957 245.752777,231.203094 
	C247.512115,229.843628 248.734497,228.934204 249.956879,228.024780 
z"/>
<path fill="#636F3F" opacity="1.000000" stroke="none" 
	d="
M252.163116,286.162323 
	C251.207855,276.014465 253.746368,267.070526 261.669189,260.024139 
	C262.244568,260.525177 262.453430,260.780151 262.728943,260.980499 
	C262.767334,263.017334 262.805756,265.054199 262.482758,267.613159 
	C258.362335,272.756531 255.336548,277.661346 255.794891,284.240967 
	C254.454651,285.049408 253.308884,285.605865 252.163116,286.162323 
z"/>
<path fill="#05303D" opacity="1.000000" stroke="none" 
	d="
M242.036011,253.393631 
	C243.822220,252.412888 245.525604,251.816162 247.552582,251.119690 
	C245.578552,258.716858 243.280945,266.413788 240.905548,274.522400 
	C238.566345,276.576996 236.304932,278.219879 233.709503,279.848602 
	C236.234726,271.148834 239.093964,262.463226 242.036011,253.393631 
z"/>
<path fill="#044452" opacity="1.000000" stroke="none" 
	d="
M289.138794,260.082214 
	C287.967102,265.963348 286.795441,271.844513 284.923218,277.915344 
	C281.534241,279.172150 279.924835,278.355591 280.063232,275.372009 
	C280.207794,272.256958 280.666687,269.156464 281.210510,265.813110 
	C281.823212,265.394836 282.213562,265.213135 282.809265,264.950134 
	C283.333954,264.547699 283.653290,264.226562 284.141235,263.630646 
	C285.919464,262.264648 287.529144,261.173431 289.138794,260.082214 
z"/>
<path fill="#052D39" opacity="1.000000" stroke="none" 
	d="
M407.551239,198.994293 
	C407.506531,199.674194 407.123566,200.488083 406.491211,200.806107 
	C403.634644,202.242691 399.544739,202.777481 398.056458,205.049988 
	C395.264130,209.313721 393.869080,214.520660 392.142059,219.423096 
	C391.888458,220.142960 393.002045,221.344467 393.727478,222.573090 
	C391.676208,222.823044 389.380524,222.823044 386.817963,222.823044 
	C389.873077,215.178299 392.819275,207.656448 395.954803,200.214355 
	C396.238129,199.541870 397.723938,199.101257 398.682526,199.039902 
	C401.479279,198.860931 404.291809,198.928833 407.551239,198.994293 
z"/>
<path fill="#636F3F" opacity="1.000000" stroke="none" 
	d="
M282.603912,265.031433 
	C282.213562,265.213135 281.823212,265.394836 280.891785,265.875916 
	C278.905670,267.167267 277.460663,268.159271 276.015656,269.151276 
	C276.164886,260.713654 278.964111,253.586487 286.305511,247.405960 
	C287.148254,249.709061 287.616058,250.987473 287.805664,252.782425 
	C285.302673,256.869293 280.434753,259.275665 282.495209,264.816223 
	C282.497833,264.900452 282.603912,265.031433 282.603912,265.031433 
z"/>
<path fill="#044452" opacity="1.000000" stroke="none" 
	d="
M308.885254,277.149994 
	C308.903687,286.691498 309.624786,286.568817 297.410522,288.554199 
	C297.681732,286.064758 298.347534,284.021057 299.039612,281.794067 
	C299.065887,281.610809 299.079285,281.240814 299.391632,281.191406 
	C300.466339,280.869354 301.228699,280.596680 302.261658,280.242065 
	C303.015656,279.908234 303.499023,279.656311 304.311096,279.304626 
	C306.054932,278.519897 307.470093,277.834930 308.885254,277.149994 
z"/>
<path fill="#8C9E5F" opacity="1.000000" stroke="none" 
	d="
M259.938965,297.094788 
	C262.918884,294.104126 266.133484,291.487396 269.700043,288.797882 
	C271.679626,289.795776 273.307190,290.866455 275.245331,292.141418 
	C270.971008,297.100861 266.264160,299.219849 259.938965,297.094788 
z"/>
<path fill="#034151" opacity="1.000000" stroke="none" 
	d="
M275.911255,269.573883 
	C277.460663,268.159271 278.905670,267.167267 280.669434,266.112427 
	C280.666687,269.156464 280.207794,272.256958 280.063232,275.372009 
	C279.924835,278.355591 281.534241,279.172150 284.576630,278.051361 
	C283.807556,280.176208 282.684509,282.354736 281.411682,284.823883 
	C275.299133,281.250519 276.142700,275.396088 275.911255,269.573883 
z"/>
<path fill="#819055" opacity="1.000000" stroke="none" 
	d="
M255.989380,283.989014 
	C255.336548,277.661346 258.362335,272.756531 262.444305,268.047974 
	C263.248749,270.996552 263.730225,274.032532 264.288605,277.485352 
	C262.014648,279.704254 259.663788,281.506287 256.895447,283.626587 
	C256.477966,283.944824 255.989380,283.989014 255.989380,283.989014 
z"/>
<path fill="#013745" opacity="1.000000" stroke="none" 
	d="
M338.043640,250.147995 
	C339.064819,242.174332 342.535370,235.293793 347.820312,228.990799 
	C348.765320,229.390717 349.344971,229.859756 349.988556,230.616272 
	C345.689178,235.814438 341.969757,241.004379 342.762970,248.392212 
	C341.840820,249.136307 340.757629,249.569916 339.102448,250.066025 
	C338.530487,250.128525 338.043640,250.147995 338.043640,250.147995 
z"/>
<path fill="#6B7743" opacity="1.000000" stroke="none" 
	d="
M307.867798,247.911133 
	C307.428436,248.933212 306.825409,249.628799 305.739624,250.646393 
	C304.580902,251.088028 303.904907,251.207672 303.228882,251.327332 
	C301.261749,246.125214 299.294647,240.923096 297.219177,235.403320 
	C297.488220,235.023666 297.865601,234.961670 298.531006,234.881760 
	C301.780731,239.104111 304.742401,243.344391 307.867798,247.911133 
z"/>
<path fill="#636F3F" opacity="1.000000" stroke="none" 
	d="
M331.520447,253.207855 
	C333.639282,252.369507 335.446869,251.703522 337.615173,251.009003 
	C337.314087,253.499634 336.652252,256.018768 335.989746,258.952332 
	C335.454071,259.845825 334.919067,260.324890 333.951172,261.047699 
	C333.261169,261.468689 333.072876,261.701569 332.953278,261.990051 
	C332.953278,261.990051 332.992737,261.989563 332.981049,261.970703 
	C331.596039,262.373016 330.222687,262.794189 328.486023,263.256958 
	C329.151489,259.992432 330.180328,256.686340 331.520447,253.207855 
z"/>
<path fill="#052D39" opacity="1.000000" stroke="none" 
	d="
M303.142395,251.743958 
	C303.904907,251.207672 304.580902,251.088028 305.588440,250.881821 
	C306.153412,255.383194 306.386932,259.971130 306.729614,265.072754 
	C306.250153,266.155243 305.661469,266.724060 304.787354,267.339539 
	C304.012329,267.700165 303.522736,268.014099 302.741272,268.399475 
	C301.872559,268.637054 301.295776,268.803223 300.719025,268.969421 
	C301.497986,263.366486 302.276947,257.763519 303.142395,251.743958 
z"/>
<path fill="#636F3F" opacity="1.000000" stroke="none" 
	d="
M350.139160,221.733704 
	C348.546844,222.646118 347.064545,223.328125 345.226501,224.029510 
	C346.764679,219.849014 348.658569,215.649155 350.791504,211.183151 
	C351.764099,210.926666 352.497620,210.936325 353.606781,211.319489 
	C353.362427,214.170593 352.742432,216.648224 352.122467,219.125839 
	C352.122467,219.125839 352.048462,219.114487 351.827515,219.215363 
	C351.424744,219.612152 351.242920,219.908066 351.061096,220.204010 
	C350.790466,220.637100 350.519836,221.070206 350.139160,221.733704 
z"/>
<path fill="#8C9E5F" opacity="1.000000" stroke="none" 
	d="
M308.951385,276.746399 
	C307.470093,277.834930 306.054932,278.519897 304.440308,278.920258 
	C305.504120,274.141693 306.767395,269.647705 308.030701,265.153717 
	C309.098816,264.461731 310.166931,263.769775 311.548035,263.017456 
	C310.913177,267.419006 309.965332,271.880890 308.951385,276.746399 
z"/>
<path fill="#819055" opacity="1.000000" stroke="none" 
	d="
M282.492584,264.732025 
	C280.434753,259.275665 285.302673,256.869293 287.830078,253.133591 
	C288.495819,255.057007 288.859070,257.145813 289.180542,259.658417 
	C287.529144,261.173431 285.919464,262.264648 283.865906,263.710449 
	C283.112183,264.287354 282.802399,264.509705 282.492584,264.732025 
z"/>
<path fill="#636F3F" opacity="1.000000" stroke="none" 
	d="
M300.416046,269.154022 
	C301.295776,268.803223 301.872559,268.637054 302.717041,268.756317 
	C301.682922,273.108093 300.381104,277.174469 299.079285,281.240814 
	C299.079285,281.240814 299.065887,281.610809 298.669769,281.852783 
	C296.660950,282.601196 295.048218,283.107697 293.435516,283.614166 
	C295.661346,278.855652 297.887207,274.097168 300.416046,269.154022 
z"/>
<path fill="#05303D" opacity="1.000000" stroke="none" 
	d="
M255.794891,284.240967 
	C255.989380,283.989014 256.477966,283.944824 256.721405,283.914978 
	C256.746674,287.362518 256.528534,290.839935 256.160828,294.653259 
	C254.688797,292.288483 253.366364,289.587769 252.103516,286.524689 
	C253.308884,285.605865 254.454651,285.049408 255.794891,284.240967 
z"/>
<path fill="#052D39" opacity="1.000000" stroke="none" 
	d="
M293.432861,283.635925 
	C295.048218,283.107697 296.660950,282.601196 298.643494,282.036011 
	C298.347534,284.021057 297.681732,286.064758 297.010681,288.479675 
	C294.914581,288.850891 292.823730,288.850891 290.109894,288.850891 
	C290.910187,287.539001 291.582367,286.437134 292.817566,285.040649 
	C293.401123,284.397552 293.421631,284.049133 293.442139,283.700684 
	C293.442169,283.700684 293.430206,283.657715 293.432861,283.635925 
z"/>
<path fill="#052D39" opacity="1.000000" stroke="none" 
	d="
M418.941895,200.586227 
	C418.409454,200.807327 417.757202,200.735703 417.051392,200.393097 
	C417.605896,200.179230 418.214020,200.236374 418.941895,200.586227 
z"/>
<path fill="#052D39" opacity="1.000000" stroke="none" 
	d="
M414.959320,199.647827 
	C414.253693,199.835693 413.383881,199.705460 412.260803,199.358215 
	C412.936737,199.204041 413.865936,199.266876 414.959320,199.647827 
z"/>
<path fill="#819055" opacity="1.000000" stroke="none" 
	d="
M262.834625,260.734253 
	C262.453430,260.780151 262.244568,260.525177 262.034027,259.975159 
	C262.175415,259.618225 262.385162,259.501740 262.594910,259.385223 
	C262.710052,259.752808 262.825165,260.120392 262.834625,260.734253 
z"/>
<path fill="#052D39" opacity="1.000000" stroke="none" 
	d="
M422.003998,201.737915 
	C421.818115,201.875015 421.556519,201.729996 421.168396,201.372009 
	C421.311188,201.305084 421.606689,201.404007 422.003998,201.737915 
z"/>
<path fill="#8C9E5F" opacity="1.000000" stroke="none" 
	d="
M265.711487,305.096161 
	C265.770172,305.455322 265.568604,305.600159 265.117676,305.503296 
	C265.050751,305.103638 265.245056,304.977051 265.711487,305.096161 
z"/>
<path fill="#636F3F" opacity="1.000000" stroke="none" 
	d="
M293.256592,283.860565 
	C293.421631,284.049133 293.401123,284.397552 293.109009,284.859222 
	C292.893738,284.649841 292.971588,284.332520 293.256592,283.860565 
z"/>
<path fill="#034151" opacity="1.000000" stroke="none" 
	d="
M235.796280,215.249451 
	C235.987595,214.975250 236.422913,215.007950 236.640121,215.028748 
	C236.199387,223.926865 235.541443,232.804199 234.339523,242.008789 
	C215.987946,251.333267 205.758087,268.166534 192.414398,282.237183 
	C191.633270,283.741272 190.572571,285.170502 190.761520,286.409058 
	C191.155060,288.988678 192.405930,291.428894 192.911896,294.003540 
	C193.173264,295.333557 192.594376,296.828735 192.395142,298.249268 
	C190.944946,297.459686 189.494781,296.670105 187.882294,295.310852 
	C187.464050,294.496033 187.208115,294.250824 186.952164,294.005646 
	C186.952164,294.005646 187.007034,294.008087 186.994659,293.572021 
	C187.583618,289.332886 186.926987,284.521667 189.018005,281.912292 
	C195.772720,273.483154 202.332596,264.967194 206.376556,254.956467 
	C209.490463,247.248047 211.502731,239.094604 214.250275,230.944550 
	C215.297791,229.810577 216.099869,228.871109 216.901962,227.931656 
	C223.136292,223.795654 229.370621,219.659653 235.796280,215.249451 
z"/>
<path fill="#034151" opacity="1.000000" stroke="none" 
	d="
M123.857086,254.532578 
	C122.475739,250.326431 119.865120,251.520767 117.393578,253.219193 
	C115.381393,254.601944 113.593430,256.310974 111.368095,257.542664 
	C111.680984,253.344330 111.423187,249.004776 113.147346,245.698944 
	C119.117058,234.252869 128.390717,225.747620 139.546646,219.419342 
	C142.058929,217.994232 145.271286,217.803299 148.161377,217.044220 
	C141.571472,229.916687 134.976212,242.786407 128.409622,255.670746 
	C128.121597,256.235870 128.096054,256.934753 127.364304,257.721344 
	C125.805931,256.758453 124.831505,255.645508 123.857086,254.532578 
z"/>
<path fill="#91A25F" opacity="1.000000" stroke="none" 
	d="
M192.700790,282.075989 
	C205.758087,268.166534 215.987946,251.333267 234.162994,242.358398 
	C231.973419,249.746979 229.416397,257.113251 226.344940,264.425476 
	C220.290665,267.728302 214.691833,270.992432 209.228745,274.469849 
	C204.420853,277.530151 199.789459,280.867859 194.974960,283.917023 
	C194.711334,284.084015 193.481094,282.724792 192.700790,282.075989 
z"/>
<path fill="#044452" opacity="1.000000" stroke="none" 
	d="
M192.414398,282.237183 
	C193.481094,282.724792 194.711334,284.084015 194.974960,283.917023 
	C199.789459,280.867859 204.420853,277.530151 209.228745,274.469849 
	C214.691833,270.992432 220.290665,267.728302 226.068085,264.623627 
	C220.526535,276.523651 214.147858,287.802826 203.072418,295.290070 
	C200.239853,297.204956 196.393631,297.620392 192.704132,298.487000 
	C192.594376,296.828735 193.173264,295.333557 192.911896,294.003540 
	C192.405930,291.428894 191.155060,288.988678 190.761520,286.409058 
	C190.572571,285.170502 191.633270,283.741272 192.414398,282.237183 
z"/>
<path fill="#052D39" opacity="1.000000" stroke="none" 
	d="
M148.464600,216.890427 
	C145.271286,217.803299 142.058929,217.994232 139.546646,219.419342 
	C128.390717,225.747620 119.117058,234.252869 113.147346,245.698944 
	C111.423187,249.004776 111.680984,253.344330 111.048538,257.664032 
	C109.759148,259.192352 108.451370,260.266602 106.507301,261.863525 
	C104.709824,250.616638 107.850800,241.916458 114.124619,233.965195 
	C125.141769,220.002426 139.771683,211.643326 157.240067,205.449722 
	C153.956299,209.824448 151.362076,213.280548 148.464600,216.890427 
z"/>
<path fill="#052D39" opacity="1.000000" stroke="none" 
	d="
M214.004837,231.139038 
	C211.502731,239.094604 209.490463,247.248047 206.376556,254.956467 
	C202.332596,264.967194 195.772720,273.483154 189.018005,281.912292 
	C186.926987,284.521667 187.583618,289.332886 186.979706,293.595062 
	C186.401230,293.279205 185.719711,292.561310 185.265686,291.720551 
	C180.629517,283.135132 180.487976,282.366241 186.866302,275.042297 
	C197.159668,263.222839 203.879227,249.552414 209.263657,234.435226 
	C211.195358,233.076981 212.600098,232.108017 214.004837,231.139038 
z"/>
<path fill="#052D39" opacity="1.000000" stroke="none" 
	d="
M250.052261,227.809891 
	C248.734497,228.934204 247.512115,229.843628 245.976974,230.869965 
	C245.664230,223.897308 245.664230,216.807739 245.664230,208.423294 
	C260.260437,205.712799 275.620667,202.860413 291.283630,200.360733 
	C289.708923,202.091827 287.831451,203.470230 285.953979,204.848633 
	C285.179749,205.198822 284.405548,205.549011 283.023651,205.701569 
	C281.780975,205.344208 281.085022,204.928421 280.519989,205.062836 
	C270.614349,207.419388 260.690277,209.717468 250.875076,212.410706 
	C249.641678,212.749146 248.161819,215.298813 248.251450,216.733017 
	C248.470032,220.230927 249.542801,223.675430 250.271637,227.141449 
	C250.271622,227.141449 250.147644,227.595001 250.052261,227.809891 
z"/>
<path fill="#052D39" opacity="1.000000" stroke="none" 
	d="
M123.555420,254.763947 
	C124.831505,255.645508 125.805931,256.758453 127.152115,258.005432 
	C127.011513,260.168243 126.499146,262.196991 125.899452,264.611145 
	C123.960556,266.755219 121.870949,268.324890 120.298744,270.305298 
	C113.581192,278.766937 109.088066,279.971466 99.285034,275.312927 
	C113.193169,276.442169 118.040779,269.792908 123.555420,254.763947 
z"/>
<path fill="#05303D" opacity="1.000000" stroke="none" 
	d="
M181.741394,241.036316 
	C183.521667,232.194687 188.489304,225.139343 195.311218,218.643799 
	C194.851364,223.113632 194.391525,227.583466 193.585541,232.558167 
	C193.156815,233.381882 193.074249,233.700729 192.991669,234.019562 
	C192.991684,234.019562 192.988358,233.991699 192.655090,233.952911 
	C190.206665,235.938568 188.091537,237.963013 185.681274,240.106995 
	C184.171234,240.496460 182.956314,240.766388 181.741394,241.036316 
z"/>
<path fill="#6B7743" opacity="1.000000" stroke="none" 
	d="
M286.232178,205.126892 
	C287.831451,203.470230 289.708923,202.091827 291.710022,200.420135 
	C299.630859,200.029755 307.526459,198.900055 315.097412,203.015686 
	C314.713867,204.434448 314.220459,205.169601 313.727081,205.904755 
	C313.378510,205.944305 313.029938,205.983856 312.418457,206.037735 
	C305.217529,205.828003 298.279846,205.592896 291.341248,205.388123 
	C289.732544,205.340652 288.120758,205.396713 286.232178,205.126892 
z"/>
<path fill="#6B7743" opacity="1.000000" stroke="none" 
	d="
M214.250275,230.944550 
	C212.600098,232.108017 211.195358,233.076981 209.475159,234.137024 
	C209.852127,228.742065 210.544571,223.256027 211.391479,217.415802 
	C212.707642,216.673325 213.869324,216.284988 215.384491,215.784332 
	C215.960266,219.546371 216.182587,223.420746 216.653427,227.613373 
	C216.099869,228.871109 215.297791,229.810577 214.250275,230.944550 
z"/>
<path fill="#819055" opacity="1.000000" stroke="none" 
	d="
M185.976410,239.987473 
	C188.091537,237.963013 190.206665,235.938568 192.668945,233.950684 
	C190.949310,239.883530 188.882553,245.779800 186.152191,251.858353 
	C185.008514,252.078522 184.528442,252.116409 184.031342,251.729736 
	C184.668350,247.532608 185.322388,243.760040 185.976410,239.987473 
z"/>
<path fill="#636F3F" opacity="1.000000" stroke="none" 
	d="
M203.226379,318.772980 
	C202.662613,319.054138 202.315781,319.093231 201.711121,319.115845 
	C198.931152,319.064423 196.409027,319.029480 193.426086,318.976257 
	C193.957199,317.893494 194.949142,316.828949 195.954865,315.444092 
	C200.690720,313.361786 205.412796,311.599792 210.501312,309.834839 
	C209.270172,312.312988 207.672577,314.794159 206.017242,317.616669 
	C205.120758,318.148987 204.282028,318.339935 203.226379,318.772980 
z"/>
<path fill="#636F3F" opacity="1.000000" stroke="none" 
	d="
M185.681290,240.106995 
	C185.322388,243.760040 184.668350,247.532608 184.004745,251.688049 
	C183.995163,252.070923 184.065369,252.001663 183.842712,252.134308 
	C183.413055,252.541260 183.206070,252.815552 182.828125,253.355682 
	C181.505539,254.146729 180.353882,254.671921 179.202225,255.197113 
	C179.858337,250.630951 180.514450,246.064774 181.455994,241.267456 
	C182.956314,240.766388 184.171234,240.496460 185.681290,240.106995 
z"/>
<path fill="#05303D" opacity="1.000000" stroke="none" 
	d="
M314.147766,205.981827 
	C314.220459,205.169601 314.713867,204.434448 315.269775,203.377136 
	C316.600403,202.487152 317.868500,201.919312 319.303345,201.043365 
	C321.053497,200.156204 322.636932,199.577103 324.567963,198.903381 
	C324.851440,199.302155 324.805756,199.798752 324.720581,200.288483 
	C323.392487,207.923660 322.867645,207.831696 314.147766,205.981827 
z"/>
<path fill="#05303D" opacity="1.000000" stroke="none" 
	d="
M179.119720,255.621140 
	C180.353882,254.671921 181.505539,254.146729 183.075409,253.244614 
	C183.684204,252.579010 183.874786,252.290329 184.065369,252.001663 
	C184.065369,252.001663 183.995163,252.070923 184.021759,252.112610 
	C184.528442,252.116409 185.008514,252.078522 185.849197,252.021210 
	C184.141922,256.269043 182.074066,260.536285 180.006210,264.803558 
	C179.683212,264.718048 179.360199,264.632568 179.037201,264.547058 
	C179.037201,261.713104 179.037201,258.879120 179.119720,255.621140 
z"/>
<path fill="#05303D" opacity="1.000000" stroke="none" 
	d="
M236.016556,196.799713 
	C235.330444,197.698761 234.646317,198.188004 233.962189,198.677246 
	C233.082565,197.429382 231.407684,196.110321 231.511536,194.950546 
	C231.663528,193.252930 233.090393,191.669464 235.117538,190.299149 
	C235.417877,192.329391 235.718216,194.359650 236.016556,196.799713 
z"/>
<path fill="#819055" opacity="1.000000" stroke="none" 
	d="
M193.272003,233.978058 
	C193.074249,233.700729 193.156815,233.381882 193.491028,232.967041 
	C193.679230,233.226212 193.615799,233.581375 193.272003,233.978058 
z"/>
<path fill="#052D39" opacity="1.000000" stroke="none" 
	d="
M186.999817,294.288361 
	C187.208115,294.250824 187.464050,294.496033 187.831314,294.986816 
	C187.644257,295.011993 187.345856,294.791534 186.999817,294.288361 
z"/>
<path fill="#6B7743" opacity="1.000000" stroke="none" 
	d="
M352.466125,219.131989 
	C352.742432,216.648224 353.362427,214.170593 353.973816,211.292648 
	C355.040680,210.551697 356.116089,210.211060 357.541809,209.849640 
	C357.432526,212.069672 356.972931,214.310501 356.758514,216.804520 
	C355.605743,217.751175 354.207764,218.444656 352.466125,219.131989 
z"/>
<path fill="#034151" opacity="1.000000" stroke="none" 
	d="
M276.055664,209.106705 
	C268.665710,214.405807 261.275726,219.704910 253.148102,224.919312 
	C249.866562,220.219467 250.643921,214.486786 254.234146,213.241898 
	C257.993988,211.938217 261.877319,210.892471 265.785156,210.143707 
	C269.151306,209.498749 272.627899,209.430145 276.055664,209.106705 
z"/>
<path fill="#013745" opacity="1.000000" stroke="none" 
	d="
M276.416138,209.077362 
	C272.627899,209.430145 269.151306,209.498749 265.785156,210.143707 
	C261.877319,210.892471 257.993988,211.938217 254.234146,213.241898 
	C250.643921,214.486786 249.866562,220.219467 252.794708,224.953873 
	C252.382034,225.656265 251.585083,226.239395 250.529877,226.981995 
	C249.542801,223.675430 248.470032,220.230927 248.251450,216.733017 
	C248.161819,215.298813 249.641678,212.749146 250.875076,212.410706 
	C260.690277,209.717468 270.614349,207.419388 280.519989,205.062836 
	C281.085022,204.928421 281.780975,205.344208 282.711060,205.767929 
	C280.929626,207.037292 278.853119,208.042648 276.416138,209.077362 
z"/>
<path fill="#05303D" opacity="1.000000" stroke="none" 
	d="
M333.154297,261.891052 
	C333.072876,261.701569 333.261169,261.468689 333.728455,261.210480 
	C333.806183,261.404938 333.611694,261.625763 333.154297,261.891052 
z"/>
<path fill="#6B7743" opacity="1.000000" stroke="none" 
	d="
M351.296570,220.071014 
	C351.242920,219.908066 351.424744,219.612152 351.830933,219.178070 
	C351.880890,219.339294 351.706482,219.638657 351.296570,220.071014 
z"/>
<path fill="#819055" opacity="1.000000" stroke="none" 
	d="
M307.809937,265.115784 
	C306.767395,269.647705 305.504120,274.141693 304.111633,279.020020 
	C303.499023,279.656311 303.015656,279.908234 302.275909,279.825073 
	C303.037323,275.424316 304.055054,271.358582 305.072784,267.292877 
	C305.661469,266.724060 306.250153,266.155243 306.990479,265.318268 
	C307.142151,265.050079 307.589233,265.077850 307.809937,265.115784 
z"/>
<path fill="#636F3F" opacity="1.000000" stroke="none" 
	d="
M338.023804,250.355148 
	C338.043640,250.147995 338.530487,250.128525 338.768738,250.175980 
	C338.859955,250.484940 338.657227,250.691803 338.189209,250.910919 
	C337.979675,250.977814 338.003937,250.562302 338.023804,250.355148 
z"/>
<path fill="#034151" opacity="1.000000" stroke="none" 
	d="
M282.495209,264.816223 
	C282.802399,264.509705 283.112183,264.287354 283.697327,263.985229 
	C283.653290,264.226562 283.333954,264.547699 282.809265,264.950134 
	C282.603912,265.031433 282.497833,264.900452 282.495209,264.816223 
z"/>
<path fill="#6B7743" opacity="1.000000" stroke="none" 
	d="
M304.787354,267.339539 
	C304.055054,271.358582 303.037323,275.424316 302.005310,279.907013 
	C301.228699,280.596680 300.466339,280.869354 299.391632,281.191406 
	C300.381104,277.174469 301.682922,273.108093 303.008972,268.684906 
	C303.522736,268.014099 304.012329,267.700165 304.787354,267.339539 
z"/>
<path fill="#819055" opacity="1.000000" stroke="none" 
	d="
M183.842712,252.134308 
	C183.874786,252.290329 183.684204,252.579010 183.246338,252.978760 
	C183.206070,252.815552 183.413055,252.541260 183.842712,252.134308 
z"/>
</svg>